<?xml version="1.0" standalone="no"?>
<!DOCTYPE svg PUBLIC "-//W3C//DTD SVG 20010904//EN"
 "http://www.w3.org/TR/2001/REC-SVG-20010904/DTD/svg10.dtd">
<svg version="1.0" xmlns="http://www.w3.org/2000/svg"
 width="2048.000000pt" height="2048.000000pt" viewBox="0 0 2048.000000 2048.000000"
 preserveAspectRatio="xMidYMid meet">
<metadata>
Created by potrace 1.11, written by Peter Selinger 2001-2013
</metadata>
<g transform="translate(0.000000,2048.000000) scale(0.100000,-0.100000)"
fill="#000000" stroke="none">
<path d="M0 10240 l0 -10240 10240 0 10240 0 0 10240 0 10240 -10240 0 -10240
0 0 -10240z m10458 4376 c58 -30 113 -80 186 -168 96 -116 91 -66 91 -948 0
-760 0 -766 -22 -849 -28 -105 -59 -157 -137 -236 -87 -87 -155 -118 -268
-123 -86 -4 -91 -3 -164 32 -147 73 -243 196 -279 356 -14 68 -16 156 -13 820
l4 745 27 75 c15 41 38 91 52 112 42 63 137 152 195 181 49 25 64 27 167 27
101 0 119 -3 161 -24z m-2027 -538 c61 -28 180 -134 225 -200 16 -23 54 -78
85 -120 31 -42 92 -139 134 -215 43 -76 108 -190 145 -253 37 -63 91 -158 120
-210 29 -52 82 -141 117 -198 77 -126 165 -298 193 -381 13 -39 20 -86 20
-134 0 -65 -4 -83 -36 -147 -45 -90 -126 -173 -214 -219 -63 -34 -68 -35 -176
-34 -103 1 -116 3 -163 29 -70 38 -182 150 -263 265 -37 51 -131 204 -209 339
-78 135 -197 337 -264 450 -231 387 -277 492 -278 635 -1 72 2 87 36 156 53
111 138 183 285 246 74 31 164 27 243 -9z m3954 16 c128 -33 233 -122 298
-253 40 -81 42 -89 42 -175 -1 -85 -4 -99 -46 -201 -27 -66 -93 -189 -164
-305 -65 -107 -136 -226 -158 -265 -22 -38 -59 -99 -81 -135 -22 -36 -63 -108
-91 -160 -171 -319 -350 -547 -482 -611 -42 -21 -62 -24 -158 -24 -105 0 -114
2 -177 33 -83 40 -164 126 -213 225 -30 59 -35 80 -35 137 0 36 7 90 16 119
22 76 138 305 230 456 43 72 97 164 120 205 236 429 415 712 512 813 88 90
208 156 287 157 23 0 68 -7 100 -16z m-5408 -1485 c101 -35 162 -67 433 -227
107 -64 301 -176 430 -250 285 -163 342 -198 445 -278 154 -119 240 -228 256
-327 13 -74 4 -178 -17 -219 -22 -42 -86 -110 -160 -169 -149 -118 -251 -122
-498 -17 -101 43 -699 374 -746 413 -8 7 -62 38 -120 70 -153 84 -336 202
-408 263 -94 80 -128 120 -167 196 -42 82 -46 157 -16 254 25 80 100 192 152
227 59 38 224 95 281 95 27 0 84 -13 135 -31z m823 -1970 c35 -5 93 -24 127
-40 80 -38 206 -156 256 -240 37 -62 38 -66 35 -145 -6 -108 -37 -173 -136
-276 -159 -166 -166 -167 -1075 -169 -720 -2 -776 2 -887 54 -88 41 -185 139
-231 232 -31 63 -34 78 -34 155 0 77 3 91 34 150 45 88 84 135 154 187 72 53
159 80 287 92 143 13 1392 13 1470 0z m474 -1308 c97 -47 216 -166 245 -244
29 -80 29 -203 0 -264 -23 -48 -144 -173 -256 -264 -80 -66 -274 -189 -385
-245 -40 -20 -97 -52 -127 -71 -30 -19 -95 -58 -145 -85 -50 -28 -127 -74
-171 -103 -169 -109 -350 -209 -432 -237 -183 -63 -379 -19 -498 114 -46 51
-107 166 -120 225 -8 40 26 171 60 229 35 60 107 136 167 176 146 98 301 195
401 252 62 35 183 105 269 157 404 241 569 328 693 364 33 10 69 21 80 26 11
5 50 8 86 6 50 -2 81 -10 133 -36z m921 -910 c42 -19 151 -124 204 -197 59
-80 66 -195 22 -331 -34 -103 -101 -235 -262 -516 -64 -111 -133 -233 -154
-272 -21 -38 -66 -115 -100 -170 -34 -55 -70 -115 -79 -133 -20 -39 -111 -172
-172 -253 -63 -83 -156 -164 -228 -199 -151 -74 -335 -23 -468 131 -125 144
-115 324 31 604 53 100 91 166 297 515 37 63 99 169 137 235 88 150 194 310
264 397 61 75 182 173 240 194 58 20 219 18 268 -5z m1089 -350 c3 -4 29 -11
58 -14 62 -6 138 -28 138 -40 0 -12 27 -37 33 -31 8 9 67 -38 67 -52 0 -7 10
-22 22 -34 l22 -20 -32 0 c-25 0 -32 -4 -32 -20 0 -17 5 -19 24 -14 32 8 46
-18 62 -121 7 -47 12 -66 13 -45 1 23 4 31 10 22 4 -8 7 -34 5 -58 -1 -24 2
-44 7 -44 6 0 7 -5 4 -10 -4 -7 -15 -2 -27 12 -19 20 -20 21 -13 3 14 -37 18
-115 6 -115 -7 0 -11 -34 -11 -104 0 -71 -4 -106 -12 -108 -16 -6 -16 -230 0
-236 9 -3 12 -49 12 -163 0 -99 4 -159 10 -159 6 0 10 -18 10 -39 0 -22 3 -41
8 -43 28 -12 58 -158 32 -158 -16 0 -12 -27 6 -45 24 -24 16 -242 -10 -260
-11 -9 -13 -14 -5 -17 9 -3 8 -17 -6 -54 -23 -65 -48 -114 -57 -114 -5 0 -8
-7 -8 -16 0 -9 -5 -12 -12 -8 -7 4 -8 3 -4 -5 9 -13 -18 -43 -29 -33 -5 4 -5
1 -1 -5 9 -17 -29 -57 -45 -48 -7 5 -10 4 -5 -3 6 -11 -43 -52 -63 -52 -6 0
-11 -4 -11 -8 0 -15 -67 -32 -130 -32 -72 0 -127 16 -152 44 -10 10 -18 14
-18 8 0 -7 -5 -12 -12 -12 -6 0 -8 3 -5 6 9 10 -41 46 -53 39 -6 -3 -13 1 -16
9 -3 8 -14 18 -25 21 -11 4 -17 11 -14 16 4 5 -3 9 -14 9 -12 0 -21 7 -21 15
0 8 -7 15 -15 15 -8 0 -14 3 -14 8 1 4 1 16 0 27 -1 17 -3 18 -11 5 -8 -13
-10 -13 -10 1 0 9 -7 30 -16 47 -8 18 -13 36 -9 42 3 5 0 7 -8 4 -18 -7 -30
33 -16 57 12 24 12 39 -2 39 -6 0 -8 -7 -4 -17 4 -12 3 -14 -3 -8 -5 6 -13 21
-17 34 -5 18 -4 22 6 16 9 -6 11 -3 6 9 -4 10 -8 30 -8 44 -1 27 -1 27 -9 -3
-6 -22 -8 -8 -8 48 0 42 4 80 9 83 9 5 13 -15 11 -48 -1 -10 3 -18 9 -18 7 0
20 -10 30 -21 20 -23 49 -20 49 5 0 16 -26 46 -41 46 -5 0 -9 -5 -9 -11 0 -5
-4 -7 -10 -4 -5 3 -10 17 -10 31 0 26 -20 54 -39 54 -16 0 -15 909 1 961 9 31
8 44 -2 64 -28 52 30 364 76 409 8 8 14 17 14 21 0 4 7 13 15 22 8 8 13 18 10
23 -7 11 115 120 134 120 9 0 27 7 39 16 12 8 22 12 22 9 0 -3 8 -1 18 4 21
13 99 14 106 2z m413 -433 c-3 -7 -5 -2 -5 12 0 14 2 19 5 13 2 -7 2 -19 0
-25z"/>
<path d="M10545 7940 c3 -5 10 -10 16 -10 5 0 9 5 9 10 0 6 -7 10 -16 10 -8 0
-12 -4 -9 -10z"/>
<path d="M9891 7584 c0 -11 3 -14 6 -6 3 7 2 16 -1 19 -3 4 -6 -2 -5 -13z"/>
<path d="M9890 7420 c0 -11 2 -20 4 -20 2 0 6 9 9 20 3 11 1 20 -4 20 -5 0 -9
-9 -9 -20z"/>
<path d="M9980 7430 c0 -5 5 -10 10 -10 6 0 10 5 10 10 0 6 -4 10 -10 10 -5 0
-10 -4 -10 -10z"/>
<path d="M10580 7350 c0 -5 5 -10 10 -10 6 0 10 5 10 10 0 6 -4 10 -10 10 -5
0 -10 -4 -10 -10z"/>
<path d="M9970 6451 c0 -114 8 -133 40 -101 13 13 15 33 12 113 -4 94 -5 97
-28 97 -24 0 -24 -1 -24 -109z"/>
<path d="M10480 6510 c0 -19 3 -21 12 -12 9 9 9 15 0 24 -9 9 -12 7 -12 -12z"/>
<path d="M10661 6174 c0 -11 3 -14 6 -6 3 7 2 16 -1 19 -3 4 -6 -2 -5 -13z"/>
</g>
</svg>
